<svg width="479" height="479" viewBox="0 0 479 479" fill="none" xmlns="http://www.w3.org/2000/svg">
<g filter="url(#filter0_f_134_92)">
<path d="M409 239.5C409 333.112 333.112 409 239.5 409C145.888 409 70 333.112 70 239.5C70 145.888 145.888 70 239.5 70C333.112 70 409 145.888 409 239.5Z" fill="#3A00A7" fill-opacity="0.5"/>
</g>
<path d="M366 277.201C366 324.404 309.167 365 237.779 365C166.391 365 108 324.404 108 277.201C108 229.999 166.391 203 237.779 203C309.167 203 366 229.999 366 277.201Z" fill="#ADADAD"/>
<ellipse cx="238" cy="273.5" rx="129" ry="72.5" fill="#D9D9D9"/>
<mask id="mask0_134_92" style="mask-type:alpha" maskUnits="userSpaceOnUse" x="108" y="201" width="259" height="164">
<path d="M366 277.201C366 324.404 309.167 365 237.779 365C166.391 365 108 324.404 108 277.201C108 229.999 166.391 203 237.779 203C309.167 203 366 229.999 366 277.201Z" fill="#ADADAD"/>
<ellipse cx="238" cy="273.5" rx="129" ry="72.5" fill="#D9D9D9"/>
</mask>
<g mask="url(#mask0_134_92)">
<path d="M233.153 200.915L357.429 229.094L329.453 284.372L233.153 200.915Z" fill="#878787"/>
</g>
<rect x="156.909" y="124" width="173.333" height="160" fill="#9D6019"/>
<rect x="146" y="124" width="173.333" height="160" fill="#AF6F24"/>
<rect x="188.424" y="187.03" width="44.8485" height="96.9696" fill="#B4EDFF"/>
<rect x="233.273" y="187.03" width="44.8485" height="96.9696" fill="#B4EDFF"/>
<line x1="225.394" y1="228.242" x2="225.394" y2="242.788" stroke="black" stroke-width="1.21212"/>
<line x1="241.152" y1="228.242" x2="241.152" y2="242.788" stroke="black" stroke-width="1.21212"/>
<circle cx="225.394" cy="228.848" r="1.81818" fill="black"/>
<circle cx="225.394" cy="228.848" r="1.81818" fill="black"/>
<circle cx="225.394" cy="228.848" r="1.81818" fill="black"/>
<circle cx="225.394" cy="228.848" r="1.81818" fill="black"/>
<circle cx="241.151" cy="228.848" r="1.81818" fill="black"/>
<circle cx="241.151" cy="228.848" r="1.81818" fill="black"/>
<circle cx="241.151" cy="228.848" r="1.81818" fill="black"/>
<circle cx="241.151" cy="228.848" r="1.81818" fill="black"/>
<circle cx="241.151" cy="242.182" r="1.81818" fill="black"/>
<circle cx="241.151" cy="242.182" r="1.81818" fill="black"/>
<circle cx="241.151" cy="242.182" r="1.81818" fill="black"/>
<circle cx="241.151" cy="242.182" r="1.81818" fill="black"/>
<circle cx="225.394" cy="242.182" r="1.81818" fill="black"/>
<circle cx="225.394" cy="242.182" r="1.81818" fill="black"/>
<circle cx="225.394" cy="242.182" r="1.81818" fill="black"/>
<circle cx="225.394" cy="242.182" r="1.81818" fill="black"/>
<line x1="233.879" y1="187.03" x2="233.879" y2="284" stroke="#A8A8A8" stroke-width="1.21212"/>
<rect x="146" y="137.333" width="173.333" height="30.303" fill="#B1E814"/>
<rect x="319.333" y="137.333" width="10.9091" height="30.303" fill="#8FBB10"/>
<path d="M189.297 160.182C188.431 158.643 187.493 157.124 186.485 155.624C185.476 154.124 184.403 152.709 183.265 151.377V160.182H180.279V146.742H182.742C183.169 147.168 183.64 147.692 184.158 148.313C184.675 148.933 185.198 149.599 185.729 150.31C186.272 151.008 186.808 151.739 187.338 152.502C187.868 153.252 188.366 153.976 188.832 154.674V146.742H191.838V160.182H189.297ZM194.938 160.182V146.742H203.937V149.282H197.963V152.094H203.277V154.635H197.963V160.182H194.938ZM216.459 146.742V149.321H212.406V160.182H209.381V149.321H205.327V146.742H216.459ZM226.631 146.742C226.864 147.168 227.129 147.698 227.427 148.332C227.737 148.953 228.054 149.631 228.377 150.368C228.713 151.092 229.043 151.836 229.366 152.599C229.689 153.361 229.993 154.079 230.277 154.751C230.562 154.079 230.866 153.361 231.189 152.599C231.512 151.836 231.835 151.092 232.159 150.368C232.495 149.631 232.812 148.953 233.109 148.332C233.419 147.698 233.691 147.168 233.923 146.742H236.677C236.807 147.634 236.923 148.636 237.026 149.748C237.143 150.847 237.24 151.997 237.317 153.2C237.408 154.389 237.485 155.585 237.55 156.788C237.628 157.99 237.692 159.121 237.744 160.182H234.796C234.757 158.876 234.706 157.454 234.641 155.915C234.576 154.376 234.479 152.825 234.35 151.26C234.117 151.803 233.859 152.405 233.574 153.064C233.29 153.723 233.005 154.383 232.721 155.042C232.45 155.702 232.184 156.335 231.926 156.943C231.667 157.538 231.448 158.048 231.267 158.475H229.153C228.972 158.048 228.752 157.538 228.493 156.943C228.235 156.335 227.963 155.702 227.679 155.042C227.407 154.383 227.129 153.723 226.845 153.064C226.56 152.405 226.302 151.803 226.069 151.26C225.94 152.825 225.843 154.376 225.778 155.915C225.713 157.454 225.662 158.876 225.623 160.182H222.675C222.727 159.121 222.785 157.99 222.85 156.788C222.927 155.585 223.005 154.389 223.082 153.2C223.173 151.997 223.27 150.847 223.373 149.748C223.49 148.636 223.612 147.634 223.742 146.742H226.631ZM244.172 158.165C244.457 158.165 244.728 158.158 244.987 158.145C245.246 158.132 245.452 158.113 245.608 158.087V155.896C245.491 155.87 245.317 155.844 245.084 155.818C244.851 155.792 244.638 155.779 244.444 155.779C244.172 155.779 243.914 155.799 243.668 155.837C243.435 155.863 243.229 155.921 243.048 156.012C242.867 156.102 242.724 156.225 242.621 156.38C242.517 156.536 242.466 156.73 242.466 156.962C242.466 157.415 242.614 157.732 242.912 157.913C243.222 158.081 243.642 158.165 244.172 158.165ZM243.94 149.709C244.793 149.709 245.504 149.806 246.073 150C246.642 150.194 247.094 150.472 247.431 150.834C247.78 151.196 248.025 151.635 248.168 152.153C248.31 152.67 248.381 153.245 248.381 153.879V159.891C247.967 159.981 247.392 160.085 246.655 160.201C245.918 160.33 245.026 160.395 243.978 160.395C243.319 160.395 242.718 160.337 242.175 160.22C241.645 160.104 241.186 159.917 240.798 159.658C240.41 159.386 240.113 159.037 239.906 158.611C239.699 158.184 239.595 157.66 239.595 157.04C239.595 156.445 239.712 155.941 239.945 155.527C240.19 155.113 240.513 154.784 240.914 154.538C241.315 154.292 241.774 154.118 242.291 154.014C242.808 153.898 243.345 153.84 243.901 153.84C244.276 153.84 244.606 153.859 244.89 153.898C245.187 153.924 245.427 153.963 245.608 154.014V153.743C245.608 153.252 245.459 152.857 245.161 152.56C244.864 152.262 244.347 152.114 243.61 152.114C243.119 152.114 242.634 152.153 242.155 152.23C241.677 152.295 241.263 152.392 240.914 152.521L240.546 150.194C240.714 150.142 240.921 150.09 241.166 150.039C241.425 149.974 241.703 149.922 242 149.883C242.298 149.832 242.608 149.793 242.931 149.767C243.267 149.728 243.604 149.709 243.94 149.709ZM257.142 152.54C256.883 152.476 256.579 152.411 256.23 152.346C255.881 152.269 255.506 152.23 255.105 152.23C254.924 152.23 254.705 152.25 254.446 152.288C254.2 152.314 254.013 152.346 253.884 152.385V160.182H250.994V150.523C251.511 150.342 252.119 150.174 252.817 150.019C253.528 149.851 254.317 149.767 255.183 149.767C255.338 149.767 255.526 149.78 255.745 149.806C255.965 149.819 256.185 149.845 256.405 149.883C256.625 149.909 256.844 149.948 257.064 150C257.284 150.039 257.471 150.09 257.627 150.155L257.142 152.54ZM262.065 153.665C262.35 153.355 262.641 153.032 262.938 152.696C263.248 152.359 263.546 152.03 263.83 151.706C264.115 151.37 264.38 151.054 264.625 150.756C264.884 150.459 265.104 150.2 265.285 149.98H268.718C268.032 150.769 267.36 151.525 266.701 152.25C266.054 152.961 265.343 153.698 264.567 154.46C264.955 154.81 265.356 155.23 265.77 155.721C266.183 156.199 266.584 156.697 266.972 157.214C267.36 157.732 267.716 158.249 268.039 158.766C268.362 159.283 268.634 159.755 268.853 160.182H265.537C265.33 159.845 265.091 159.477 264.819 159.076C264.561 158.662 264.283 158.255 263.985 157.854C263.688 157.441 263.371 157.046 263.035 156.671C262.712 156.296 262.389 155.98 262.065 155.721V160.182H259.176V145.597L262.065 145.132V153.665ZM269.221 155.159C269.221 154.254 269.357 153.465 269.628 152.793C269.913 152.107 270.281 151.538 270.734 151.086C271.186 150.633 271.704 150.291 272.285 150.058C272.88 149.825 273.488 149.709 274.108 149.709C275.557 149.709 276.701 150.155 277.541 151.047C278.382 151.926 278.802 153.226 278.802 154.945C278.802 155.113 278.795 155.301 278.782 155.508C278.769 155.702 278.757 155.876 278.744 156.031H272.188C272.253 156.626 272.531 157.098 273.022 157.447C273.514 157.796 274.173 157.971 275.001 157.971C275.531 157.971 276.048 157.925 276.552 157.835C277.069 157.732 277.489 157.609 277.813 157.466L278.201 159.813C278.045 159.891 277.839 159.968 277.58 160.046C277.321 160.123 277.03 160.188 276.707 160.24C276.397 160.304 276.061 160.356 275.699 160.395C275.337 160.434 274.975 160.453 274.613 160.453C273.695 160.453 272.893 160.317 272.208 160.046C271.536 159.774 270.973 159.406 270.521 158.94C270.081 158.462 269.751 157.9 269.531 157.253C269.325 156.607 269.221 155.909 269.221 155.159ZM276.009 154.053C275.996 153.808 275.951 153.568 275.873 153.336C275.809 153.103 275.699 152.896 275.544 152.715C275.401 152.534 275.214 152.385 274.981 152.269C274.761 152.153 274.483 152.094 274.147 152.094C273.824 152.094 273.546 152.153 273.313 152.269C273.081 152.372 272.887 152.515 272.731 152.696C272.576 152.877 272.453 153.09 272.363 153.336C272.285 153.568 272.227 153.808 272.188 154.053H276.009ZM280.935 147.44L283.825 146.974V149.98H287.296V152.385H283.825V155.973C283.825 156.581 283.928 157.066 284.135 157.428C284.355 157.79 284.788 157.971 285.434 157.971C285.745 157.971 286.061 157.945 286.385 157.893C286.721 157.829 287.025 157.744 287.296 157.641L287.703 159.891C287.354 160.033 286.966 160.156 286.54 160.259C286.113 160.363 285.589 160.414 284.969 160.414C284.18 160.414 283.527 160.311 283.01 160.104C282.493 159.884 282.079 159.587 281.769 159.212C281.458 158.824 281.239 158.359 281.109 157.816C280.993 157.273 280.935 156.671 280.935 156.012V147.44Z" fill="black"/>
<defs>
<filter id="filter0_f_134_92" x="0" y="0" width="479" height="479" filterUnits="userSpaceOnUse" color-interpolation-filters="sRGB">
<feFlood flood-opacity="0" result="BackgroundImageFix"/>
<feBlend mode="normal" in="SourceGraphic" in2="BackgroundImageFix" result="shape"/>
<feGaussianBlur stdDeviation="35" result="effect1_foregroundBlur_134_92"/>
</filter>
</defs>
</svg>
